<svg xmlns="http://www.w3.org/2000/svg" width="42" height="42" viewBox="0 0 42 42">
    <g fill="none" fill-rule="evenodd" transform="translate(1 1)">
        <g fill="#d19fae" fill-rule="nonzero" transform="translate(11 12)">
            <path d="M11.936 0H5.064A5.07 5.07 0 0 0 0 5.064v6.872A5.07 5.07 0 0 0 5.064 17h6.872A5.07 5.07 0 0 0 17 11.936V5.064A5.07 5.07 0 0 0 11.936 0zm3.354 11.936a3.354 3.354 0 0 1-3.354 3.354H5.064a3.354 3.354 0 0 1-3.354-3.354V5.064A3.354 3.354 0 0 1 5.064 1.71h6.872a3.354 3.354 0 0 1 3.354 3.354v6.872z"/>
            <path d="M8.5 4A4.505 4.505 0 0 0 4 8.5C4 10.981 6.019 13 8.5 13S13 10.981 13 8.5 10.981 4 8.5 4zm0 7.25a2.75 2.75 0 1 1 0-5.5 2.75 2.75 0 0 1 0 5.5z"/>
            <circle cx="13" cy="4" r="1"/>
        </g>
        <circle cx="20" cy="20" r="20" stroke="#d19fae"/>
    </g>
</svg>