<svg id="faf62190-4e5e-4012-bad0-c35a8f2660d0" data-name="Слой 1" xmlns="http://www.w3.org/2000/svg" viewBox="0 0 41 41">
  <circle cx="20.5" cy="20.5" r="20" style="fill: none;stroke: #d19fae"/>
  <g>
    <path d="M21.76,10.1h.8a9.2,9.2,0,0,1,9.19,9.2v.8a1.17,1.17,0,0,1-.37.75,1.21,1.21,0,0,1-.78.3h-.09a1.12,1.12,0,0,1-.78-.41,1.1,1.1,0,0,1-.27-.83V19.3a6.9,6.9,0,0,0-6.9-6.9H22a1.17,1.17,0,0,1-.84-.26,1.15,1.15,0,0,1-.4-.79,1.16,1.16,0,0,1,.26-.84A1.2,1.2,0,0,1,21.76,10.1Z" transform="translate(-0.5 -0.5)" style="fill: #d19fae;fill-rule: evenodd"/>
    <path d="M25.2,20.11a1.13,1.13,0,0,1-.34-.81,2.29,2.29,0,0,0-2.3-2.3,1.14,1.14,0,0,1-.81-.34,1.11,1.11,0,0,1-.34-.81,1.13,1.13,0,0,1,.34-.81,1.14,1.14,0,0,1,.81-.34,4.61,4.61,0,0,1,4.6,4.6,1.13,1.13,0,0,1-.34.81,1.11,1.11,0,0,1-.81.34A1.13,1.13,0,0,1,25.2,20.11Z" transform="translate(-0.5 -0.5)" style="fill: #d19fae;fill-rule: evenodd"/>
    <path d="M30,30.14h0a1.78,1.78,0,0,1-.15.71,1.73,1.73,0,0,1-.42.58,1.85,1.85,0,0,1-.67.38,1.75,1.75,0,0,1-.72.06,14.93,14.93,0,0,1-6.65-2.19,34.07,34.07,0,0,1-5.19-3.59h0l0,0A20.63,20.63,0,0,1,10.27,14.2a1.62,1.62,0,0,1,.06-.76,1.6,1.6,0,0,1,.38-.67A1.74,1.74,0,0,1,12,12.19H15.5a1.85,1.85,0,0,1,1.11.37,1.75,1.75,0,0,1,.63,1l0,.06v.07a2,2,0,0,0,.09.53l.07.3h0a12.9,12.9,0,0,0,.51,1.71l.19.5-2.12,1h0a.61.61,0,0,0-.31.32h0a.56.56,0,0,0,0,.44l0,.07v.06a4.55,4.55,0,0,0,.74,1.66,12.91,12.91,0,0,0,1.7,2.09,21.41,21.41,0,0,0,5.38,4,.64.64,0,0,0,.43,0h0a.55.55,0,0,0,.33-.3h0l1-2.13.5.19a13.74,13.74,0,0,0,1.77.51h0c.28.06.59.12.89.16h0a1.76,1.76,0,0,1,1,.63,1.68,1.68,0,0,1,.37,1.1Z" transform="translate(-0.5 -0.5)" style="fill: #d19fae;fill-rule: evenodd"/>
  </g>
</svg>
