 <svg xmlns="http://www.w3.org/2000/svg" width="42" height="42" viewBox="0 0 42 42">
    <g fill="none" fill-rule="evenodd" transform="translate(1 1)">
        <path fill="#d19fae" d="M20.177 26.817h1.243s.376-.042.567-.248c.177-.19.171-.546.171-.546s-.024-1.669.75-1.914c.764-.242 1.744 1.612 2.783 2.325.785.54 1.382.421 1.382.421l2.778-.038s1.453-.09.764-1.232c-.056-.094-.401-.846-2.065-2.39-1.742-1.617-1.509-1.355.59-4.152 1.277-1.703 1.788-2.742 1.628-3.188-.152-.424-1.092-.312-1.092-.312l-3.127.02s-.232-.032-.404.07c-.168.102-.276.337-.276.337s-.495 1.317-1.155 2.438c-1.393 2.365-1.95 2.49-2.178 2.343-.529-.342-.397-1.375-.397-2.108 0-2.292.348-3.248-.677-3.495-.34-.082-.59-.137-1.46-.145-1.115-.012-2.06.003-2.595.265-.356.174-.63.563-.463.585.207.028.675.126.923.464.32.436.31 1.415.31 1.415s.184 2.698-.43 3.034c-.422.23-1-.24-2.242-2.385-.636-1.1-1.117-2.314-1.117-2.314s-.092-.227-.257-.349c-.201-.147-.481-.194-.481-.194l-2.972.02s-.446.012-.61.206c-.146.173-.012.53-.012.53s2.327 5.443 4.962 8.187c2.416 2.515 5.159 2.35 5.159 2.35z"/>
        <circle cx="20" cy="20" r="20" stroke="#d19fae"/>
    </g>
</svg>