<svg xmlns="http://www.w3.org/2000/svg" width="42" height="42" viewBox="0 0 42 42">
    <g fill="none" fill-rule="evenodd" transform="translate(1 1)">
        <circle cx="20" cy="20" r="20" stroke="#d19fae" stroke-width="1.3"/>
        <path fill="#d19fae" fill-rule="nonzero" d="M27.071 12.921A9.948 9.948 0 0 0 20 10a9.948 9.948 0 0 0-7.071 2.921A9.896 9.896 0 0 0 10 19.974c0 2.106.645 4.106 1.868 5.805L10.013 30l4.638-1.598A9.968 9.968 0 0 0 20 29.948a9.948 9.948 0 0 0 7.071-2.921A9.896 9.896 0 0 0 30 19.974a9.896 9.896 0 0 0-2.929-7.053zm-1.173 10.48c-.914 1.347-.914 1.347-.934 1.372-.509.619-1.302.939-2.292.939-.37 0-.765-.045-1.184-.134-1.407-.302-2.943-1.09-4.326-2.22-1.382-1.129-2.46-2.476-3.033-3.792-.629-1.445-.59-2.708.107-3.558.02-.025.02-.025 1.214-1.237l.477-.485 2.635 3.495-.93 1.132c.453.627.989 1.295 1.664 1.847.676.552 1.438.944 2.143 1.264l.938-1.141 3.893 1.968-.372.55z"/>
    </g>
</svg>
