<svg xmlns="http://www.w3.org/2000/svg" width="24" height="24" viewBox="0 0 24 24" fill="none">
<path fill-rule="evenodd" clip-rule="evenodd" d="M18.5558 18.5628C17.9899 19.1287 17.0744 19.1287 16.5168 18.5711L11.9896 14.0439L7.47063 18.5628C6.90472 19.1287 5.98928 19.1287 5.4317 18.5711C4.87411 18.0135 4.87411 17.0981 5.44002 16.5322L9.96728 12.0049L5.42338 7.46102C4.85747 6.89511 4.86579 5.98799 5.4317 5.42208C5.99761 4.85617 6.91305 4.85617 7.47063 5.41376L11.9979 9.94102L16.5252 5.41376C17.0911 4.84785 18.0065 4.84785 18.5641 5.40544C19.1217 5.96302 19.1217 6.87846 18.5558 7.44437L14.0285 11.9716L18.5558 16.4989C19.1217 17.0648 19.1134 17.9719 18.5475 18.5378L18.5558 18.5628Z" fill="currentColor"/>
</svg>